<svg id="visual" viewBox="0 0 900 600" width="900" height="600" xmlns="http://www.w3.org/2000/svg" xmlns:xlink="http://www.w3.org/1999/xlink" version="1.1"><path d="M0 356L129 356L129 401L257 401L257 321L386 321L386 394L514 394L514 358L643 358L643 350L771 350L771 413L900 413L900 353L900 601L900 601L771 601L771 601L643 601L643 601L514 601L514 601L386 601L386 601L257 601L257 601L129 601L129 601L0 601Z" fill="#4a0d25"></path><path d="M0 386L129 386L129 451L257 451L257 434L386 434L386 481L514 481L514 388L643 388L643 448L771 448L771 398L900 398L900 472L900 601L900 601L771 601L771 601L643 601L643 601L514 601L514 601L386 601L386 601L257 601L257 601L129 601L129 601L0 601Z" fill="#95214f"></path><path d="M0 520L129 520L129 493L257 493L257 527L386 527L386 549L514 549L514 468L643 468L643 513L771 513L771 488L900 488L900 498L900 601L900 601L771 601L771 601L643 601L643 601L514 601L514 601L386 601L386 601L257 601L257 601L129 601L129 601L0 601Z" fill="#e7367d"></path></svg>